<svg xmlns="http://www.w3.org/2000/svg" width="63" height="19" viewBox="0 0 63 19">
  <defs>
    <style>
      .cls-1 {
        fill: #fff;
        fill-rule: evenodd;
      }
    </style>
  </defs>
  <path id="Shape" class="cls-1" d="M8.766,8C6.125,8,3.418,9.911,3.418,12.251a2.855,2.855,0,0,0,1.147,2.427A0.822,0.822,0,0,1,4.5,16a3.181,3.181,0,0,1-2.208,1.082A2.545,2.545,0,0,1-.025,14.352c0-1,.65-3.141,3.248-5.091a13.251,13.251,0,0,1,7.752-2.945c5.672-4.529,10.262-5.352,13.6-5.352a23.744,23.744,0,0,1,8.53,1.82C34.575,3.346,40.291,5.73,44.34,7.506c4.243,1.755,7.9,2.817,10.413,2.817,2.014,0,4.916-.716,4.916-3.185A2.263,2.263,0,0,0,58.8,5.232a1.3,1.3,0,0,1-.5-0.889,2.381,2.381,0,0,1,2.252-2.3,2.706,2.706,0,0,1,2.468,2.816c0,3.292-3.593,5.524-6.019,6.521-4.46,4.744-8.964,6.651-13.337,6.651-3.2,0-6.279-.867-10.349-2.34-3.076-1.127-12.731-5.069-16.608-6.3A24.451,24.451,0,0,0,8.809,8H8.766ZM21.216,2.762a8.565,8.565,0,0,0-7.167,3.7,26.017,26.017,0,0,1,8.466,1.927c4.222,1.431,12.017,4.766,14.745,5.7a28.71,28.71,0,0,0,8.812,1.82c3.226,0,6.106-1.061,7.621-3.791-3.01.389-5.845-.087-10.025-1.712-3.2-1.234-12.038-5.285-15.026-6.3a23.04,23.04,0,0,0-7.383-1.343H21.216Z"/>
</svg>
